<?xml version="1.0" encoding="UTF-8"?>
<!DOCTYPE svg PUBLIC "-//W3C//DTD SVG 1.1//EN" "http://www.w3.org/Graphics/SVG/1.1/DTD/svg11.dtd">
<svg xmlns="http://www.w3.org/2000/svg" version="1.1" width="188px" height="43px" style="shape-rendering:geometricPrecision; text-rendering:geometricPrecision; image-rendering:optimizeQuality; fill-rule:evenodd; clip-rule:evenodd" xmlns:xlink="http://www.w3.org/1999/xlink">
<g><path style="opacity:0.546" fill="#db1d34" d="M 177.5,5.5 C 181.224,3.84461 184.557,4.51128 187.5,7.5C 187.5,9.83333 187.5,12.1667 187.5,14.5C 184.595,18.3285 181.261,18.9952 177.5,16.5C 178.506,16.0623 178.506,15.3957 177.5,14.5C 178.833,14.1667 178.833,13.8333 177.5,13.5C 177.954,11.2589 177.954,9.2589 177.5,7.5C 178.506,6.60433 178.506,5.93767 177.5,5.5 Z M 180.5,8.5 C 182.337,8.63945 182.67,9.30612 181.5,10.5C 180.702,10.0431 180.369,9.37644 180.5,8.5 Z M 184.5,8.5 C 185.622,10.2884 185.789,12.2884 185,14.5C 184.308,13.9747 183.808,13.3081 183.5,12.5C 184.246,11.2638 184.579,9.93047 184.5,8.5 Z M 180.5,12.5 C 183.377,14.8455 183.044,15.6789 179.5,15C 180.252,14.3292 180.586,13.4959 180.5,12.5 Z"/></g>
<g><path style="opacity:0.277" fill="#db1d34" d="M -0.5,5.5 C 0.791047,5.26269 1.79105,5.59603 2.5,6.5C 1.50838,6.32842 0.841711,6.66175 0.5,7.5C 0.166667,7.5 -0.166667,7.5 -0.5,7.5C -0.5,6.83333 -0.5,6.16667 -0.5,5.5 Z"/></g>
<g><path style="opacity:1" fill="#e01d35" d="M 2.5,6.5 C 4.5,7.83333 6.16667,9.5 7.5,11.5C 6.35918,17.2588 6.35918,23.9255 7.5,31.5C 6.16667,33.5 4.5,35.1667 2.5,36.5C 1.07546,38.0311 0.408793,37.6977 0.5,35.5C 3.11677,26.1758 3.11677,16.8425 0.5,7.5C 0.841711,6.66175 1.50838,6.32842 2.5,6.5 Z"/></g>
<g><path style="opacity:0.589" fill="#de1d35" d="M 177.5,5.5 C 178.506,5.93767 178.506,6.60433 177.5,7.5C 177.954,9.2589 177.954,11.2589 177.5,13.5C 177.5,13.8333 177.5,14.1667 177.5,14.5C 178.506,15.3957 178.506,16.0623 177.5,16.5C 175.124,15.488 174.124,13.6546 174.5,11C 174.124,8.34537 175.124,6.51204 177.5,5.5 Z"/></g>
<g><path style="opacity:0.624" fill="#dc1d34" d="M 45.5,17.5 C 44.6365,16.537 43.9698,16.537 43.5,17.5C 44.4173,20.7577 44.7507,24.091 44.5,27.5C 42.7742,25.0578 41.2742,22.3911 40,19.5C 39.5012,23.4862 39.3345,27.4862 39.5,31.5C 37.8333,31.5 36.1667,31.5 34.5,31.5C 34.5,24.5 34.5,17.5 34.5,10.5C 40.6192,9.24793 44.2859,11.5813 45.5,17.5 Z"/></g>
<g><path style="opacity:0.401" fill="#dc1d34" d="M 47.5,31.5 C 49.2646,30.5386 51.2646,30.2053 53.5,30.5C 53.5,24.1667 53.5,17.8333 53.5,11.5C 52.5,11.5 51.5,11.5 50.5,11.5C 50.6658,16.1785 50.4992,20.8452 50,25.5C 49.2828,24.9558 48.7828,24.2891 48.5,23.5C 49.4849,19.3656 49.8182,15.0323 49.5,10.5C 51.1667,10.5 52.8333,10.5 54.5,10.5C 54.5,17.5 54.5,24.5 54.5,31.5C 52.1667,31.5 49.8333,31.5 47.5,31.5 Z"/></g>
<g><path style="opacity:0.941" fill="#dd1d34" d="M 7.5,11.5 C 9.75398,12.1237 11.4206,13.457 12.5,15.5C 12.7746,19.5638 13.7746,23.2305 15.5,26.5C 12.8695,28.1526 10.2028,29.8193 7.5,31.5C 6.35918,23.9255 6.35918,17.2588 7.5,11.5 Z"/></g>
<g><path style="opacity:1" fill="#e11d35" d="M 39.5,17.5 C 39.5386,16.2438 39.0386,15.2438 38,14.5C 37.2599,15.7494 37.4265,16.7494 38.5,17.5C 38.5,21.8333 38.5,26.1667 38.5,30.5C 37.5,30.5 36.5,30.5 35.5,30.5C 35.5,24.1667 35.5,17.8333 35.5,11.5C 37.1667,11.5 38.8333,11.5 40.5,11.5C 40.7947,13.7354 40.4614,15.7354 39.5,17.5 Z"/></g>
<g><path style="opacity:0.998" fill="#d71e34" d="M 47.5,31.5 C 45.5544,30.9653 44.5544,29.632 44.5,27.5C 44.7507,24.091 44.4173,20.7577 43.5,17.5C 43.9698,16.537 44.6365,16.537 45.5,17.5C 47.3465,19.0301 48.3465,21.0301 48.5,23.5C 48.7828,24.2891 49.2828,24.9558 50,25.5C 50.4992,20.8452 50.6658,16.1785 50.5,11.5C 51.5,11.5 52.5,11.5 53.5,11.5C 53.5,17.8333 53.5,24.1667 53.5,30.5C 51.2646,30.2053 49.2646,30.5386 47.5,31.5 Z"/></g>
<g><path style="opacity:0.779" fill="#dc1d34" d="M 63.5,12.5 C 65.2646,11.5386 67.2646,11.2053 69.5,11.5C 69.5569,12.609 69.8902,13.609 70.5,14.5C 69.4168,14.4606 68.4168,14.1272 67.5,13.5C 66.3377,18.467 66.1711,23.467 67,28.5C 67.3826,29.056 67.8826,29.3893 68.5,29.5C 68.5,30.1667 68.5,30.8333 68.5,31.5C 66.5853,31.7845 64.9187,31.4511 63.5,30.5C 64.3764,30.6309 65.0431,30.2975 65.5,29.5C 65.4024,24.3536 65.4024,19.1869 65.5,14C 65.1639,12.9701 64.4972,12.4701 63.5,12.5 Z"/></g>
<g><path style="opacity:0.99" fill="#d71e34" d="M 69.5,11.5 C 76.7083,11.0417 79.7083,14.3751 78.5,21.5C 79.2865,29.3828 75.9531,32.7162 68.5,31.5C 68.5,30.8333 68.5,30.1667 68.5,29.5C 69.1667,29.5 69.8333,29.5 70.5,29.5C 71.8048,27.6028 72.4714,25.2695 72.5,22.5C 72.4966,19.9746 72.1633,17.6413 71.5,15.5C 70.8333,15.5 70.5,15.1667 70.5,14.5C 69.8902,13.609 69.5569,12.609 69.5,11.5 Z"/></g>
<g><path style="opacity:0.525" fill="#dd1d34" d="M 98.5,12.5 C 97.0222,12.238 95.6888,12.5713 94.5,13.5C 95.6302,14.6223 96.2969,15.9557 96.5,17.5C 94.8712,16.3747 93.3712,15.0414 92,13.5C 91.5026,16.146 91.3359,18.8127 91.5,21.5C 93.2915,21.634 94.9582,21.3007 96.5,20.5C 95.8333,21.8333 95.1667,23.1667 94.5,24.5C 93.8501,24.1961 93.1835,23.8627 92.5,23.5C 91.5159,26.4281 91.1826,29.4281 91.5,32.5C 89.1667,32.5 86.8333,32.5 84.5,32.5C 84.5,25.5 84.5,18.5 84.5,11.5C 89.3633,11.1805 94.03,11.5139 98.5,12.5 Z"/></g>
<g><path style="opacity:0.495" fill="#dc1d34" d="M 109.5,12.5 C 113.5,11.1667 117.5,11.1667 121.5,12.5C 120.041,12.4326 118.708,12.7659 117.5,13.5C 116.833,13.5 116.167,13.5 115.5,13.5C 113.735,12.5386 111.735,12.2053 109.5,12.5 Z"/></g>
<g><path style="opacity:0.471" fill="#dc1d34" d="M 145.5,12.5 C 146.404,13.209 146.737,14.209 146.5,15.5C 142.958,15.1872 139.625,15.5206 136.5,16.5C 135.624,16.6309 134.957,16.2975 134.5,15.5C 138.755,13.1349 138.421,12.1349 133.5,12.5C 133.5,18.8333 133.5,25.1667 133.5,31.5C 134.5,31.5 135.5,31.5 136.5,31.5C 137.167,31.5 137.5,31.8333 137.5,32.5C 135.833,32.5 134.167,32.5 132.5,32.5C 132.5,25.5 132.5,18.5 132.5,11.5C 137.032,11.1818 141.366,11.5151 145.5,12.5 Z"/></g>
<g><path style="opacity:0.771" fill="#dd1d34" d="M 163.5,18.5 C 162.833,21.5 162.167,24.5 161.5,27.5C 160.167,25.5 158.833,23.5 157.5,21.5C 157.539,19.7761 157.206,19.4427 156.5,20.5C 155.086,18.9561 154.753,17.2894 155.5,15.5C 156.192,16.0253 156.692,16.6919 157,17.5C 157.494,15.8659 157.66,14.1992 157.5,12.5C 156.167,12.5 154.833,12.5 153.5,12.5C 153.823,18.69 153.49,24.69 152.5,30.5C 152.5,24.1667 152.5,17.8333 152.5,11.5C 154.857,11.3367 157.19,11.5034 159.5,12C 161.058,14.0519 162.392,16.2185 163.5,18.5 Z"/></g>
<g><path style="opacity:1" fill="#e11d35" d="M 63.5,12.5 C 64.4972,12.4701 65.1639,12.9701 65.5,14C 65.4024,19.1869 65.4024,24.3536 65.5,29.5C 65.0431,30.2975 64.3764,30.6309 63.5,30.5C 62.5084,30.6716 61.8417,30.3382 61.5,29.5C 61.6469,24.7858 61.3136,20.1191 60.5,15.5C 60.5,13.5 61.5,12.5 63.5,12.5 Z"/></g>
<g><path style="opacity:1" fill="#e11d35" d="M 85.5,12.5 C 87.7159,12.2746 89.3826,13.1079 90.5,15C 89.287,19.8923 89.287,25.3923 90.5,31.5C 88.8333,31.5 87.1667,31.5 85.5,31.5C 85.5,25.1667 85.5,18.8333 85.5,12.5 Z"/></g>
<g><path style="opacity:0.987" fill="#d71e34" d="M 98.5,12.5 C 102.254,13.8276 103.421,16.4942 102,20.5C 101.617,21.056 101.117,21.3893 100.5,21.5C 96.5,22.1667 96.5,22.8333 100.5,23.5C 102.369,25.6353 103.036,28.3019 102.5,31.5C 100.5,31.5 98.5,31.5 96.5,31.5C 96.7947,29.2646 96.4614,27.2646 95.5,25.5C 94.8333,25.5 94.5,25.1667 94.5,24.5C 95.1667,23.1667 95.8333,21.8333 96.5,20.5C 96.5,19.5 96.5,18.5 96.5,17.5C 96.2969,15.9557 95.6302,14.6223 94.5,13.5C 95.6888,12.5713 97.0222,12.238 98.5,12.5 Z"/></g>
<g><path style="opacity:1" fill="#e11d35" d="M 109.5,12.5 C 111.735,12.2053 113.735,12.5386 115.5,13.5C 114.51,19.31 114.177,25.31 114.5,31.5C 112.833,31.5 111.167,31.5 109.5,31.5C 109.5,25.1667 109.5,18.8333 109.5,12.5 Z"/></g>
<g><path style="opacity:0.99" fill="#d71e34" d="M 121.5,12.5 C 123.39,12.2965 124.89,12.9632 126,14.5C 126.667,19.5 126.667,24.5 126,29.5C 125.184,30.8228 124.017,31.4894 122.5,31.5C 120.801,31.6602 119.134,31.4935 117.5,31C 118.448,30.5172 119.448,30.3505 120.5,30.5C 120.821,25.3054 120.487,20.3054 119.5,15.5C 118.5,15.1667 117.833,14.5 117.5,13.5C 118.708,12.7659 120.041,12.4326 121.5,12.5 Z"/></g>
<g><path style="opacity:1" fill="#e11d35" d="M 136.5,16.5 C 136.697,21.3197 136.697,26.3197 136.5,31.5C 135.5,31.5 134.5,31.5 133.5,31.5C 133.5,25.1667 133.5,18.8333 133.5,12.5C 138.421,12.1349 138.755,13.1349 134.5,15.5C 134.957,16.2975 135.624,16.6309 136.5,16.5 Z"/></g>
<g><path style="opacity:1" fill="#d71e34" d="M 145.5,12.5 C 145.03,13.6935 144.03,14.3601 142.5,14.5C 141.5,14.1667 140.5,13.8333 139.5,13.5C 141.396,12.5344 143.396,12.2011 145.5,12.5 Z"/></g>
<g><path style="opacity:1" fill="#e11d35" d="M 156.5,20.5 C 156.5,20.8333 156.5,21.1667 156.5,21.5C 156.5,24.8333 156.5,28.1667 156.5,31.5C 155.167,31.5 153.833,31.5 152.5,31.5C 152.5,31.1667 152.5,30.8333 152.5,30.5C 153.49,24.69 153.823,18.69 153.5,12.5C 154.833,12.5 156.167,12.5 157.5,12.5C 157.66,14.1992 157.494,15.8659 157,17.5C 156.692,16.6919 156.192,16.0253 155.5,15.5C 154.753,17.2894 155.086,18.9561 156.5,20.5 Z"/></g>
<g><path style="opacity:0.948" fill="#d81e34" d="M 171.5,30.5 C 168.946,31.388 166.279,31.7214 163.5,31.5C 162.326,30.4863 161.66,29.153 161.5,27.5C 162.167,24.5 162.833,21.5 163.5,18.5C 164.403,20.6365 165.569,22.6365 167,24.5C 167.499,20.1794 167.666,15.8461 167.5,11.5C 168.833,11.5 170.167,11.5 171.5,11.5C 171.5,17.8333 171.5,24.1667 171.5,30.5 Z"/></g>
<g><path style="opacity:0.491" fill="#dc1d34" d="M 115.5,13.5 C 116.81,18.6671 116.81,23.8338 115.5,29C 116.793,29.49 118.127,29.6567 119.5,29.5C 119.5,24.8333 119.5,20.1667 119.5,15.5C 120.487,20.3054 120.821,25.3054 120.5,30.5C 119.448,30.3505 118.448,30.5172 117.5,31C 119.134,31.4935 120.801,31.6602 122.5,31.5C 118.167,32.8333 113.833,32.8333 109.5,31.5C 111.167,31.5 112.833,31.5 114.5,31.5C 114.177,25.31 114.51,19.31 115.5,13.5 Z"/></g>
<g><path style="opacity:0.603" fill="#dc1d34" d="M 39.5,17.5 C 39.1667,17.5 38.8333,17.5 38.5,17.5C 37.4265,16.7494 37.2599,15.7494 38,14.5C 39.0386,15.2438 39.5386,16.2438 39.5,17.5 Z"/></g>
<g><path style="opacity:0.613" fill="#dc1d34" d="M 60.5,15.5 C 61.3136,20.1191 61.6469,24.7858 61.5,29.5C 60.6586,25.8384 59.9919,22.005 59.5,18C 59.528,16.9302 59.8614,16.0968 60.5,15.5 Z"/></g>
<g><path style="opacity:0.612" fill="#dc1d35" d="M 71.5,15.5 C 72.1633,17.6413 72.4966,19.9746 72.5,22.5C 72.4714,25.2695 71.8048,27.6028 70.5,29.5C 71.441,24.9296 71.7744,20.263 71.5,15.5 Z"/></g>
<g><path style="opacity:0.989" fill="#d91e34" d="M 12.5,15.5 C 17.4238,18.4762 22.7571,20.4762 28.5,21.5C 28.5,22.5 28.5,23.5 28.5,24.5C 24.0372,24.4231 19.7039,25.0898 15.5,26.5C 13.7746,23.2305 12.7746,19.5638 12.5,15.5 Z"/></g>
<g><path style="opacity:0.703" fill="#dd1d34" d="M 136.5,16.5 C 137.812,17.1451 138.812,18.1451 139.5,19.5C 141.396,20.4656 143.396,20.7989 145.5,20.5C 145.5,21.8333 145.5,23.1667 145.5,24.5C 143.5,24.5 141.5,24.5 139.5,24.5C 139.5,26.1667 139.5,27.8333 139.5,29.5C 139.443,30.609 139.11,31.609 138.5,32.5C 138.167,32.5 137.833,32.5 137.5,32.5C 137.5,31.8333 137.167,31.5 136.5,31.5C 136.697,26.3197 136.697,21.3197 136.5,16.5 Z"/></g>
<g><path style="opacity:0.611" fill="#db1d35" d="M 100.5,21.5 C 100.5,22.1667 100.5,22.8333 100.5,23.5C 96.5,22.8333 96.5,22.1667 100.5,21.5 Z"/></g>
<g><path style="opacity:1" fill="#d61e34" d="M 140.5,22.5 C 141.708,21.218 143.042,21.218 144.5,22.5C 143.192,23.6256 141.858,23.6256 140.5,22.5 Z"/></g>
<g><path style="opacity:0.28" fill="#dd1d35" d="M 156.5,21.5 C 156.833,21.5 157.167,21.5 157.5,21.5C 157.5,25.1667 157.5,28.8333 157.5,32.5C 155.585,32.7845 153.919,32.4511 152.5,31.5C 153.833,31.5 155.167,31.5 156.5,31.5C 156.5,28.1667 156.5,24.8333 156.5,21.5 Z"/></g>
<g><path style="opacity:0.294" fill="#dc1d34" d="M 95.5,25.5 C 96.4614,27.2646 96.7947,29.2646 96.5,31.5C 98.5,31.5 100.5,31.5 102.5,31.5C 100.393,32.4682 98.0593,32.8016 95.5,32.5C 95.5,30.1667 95.5,27.8333 95.5,25.5 Z"/></g>
<g><path style="opacity:0.83" fill="#d81e34" d="M 139.5,29.5 C 141.833,29.5 144.167,29.5 146.5,29.5C 146.5,30.5 146.5,31.5 146.5,32.5C 143.833,32.5 141.167,32.5 138.5,32.5C 139.11,31.609 139.443,30.609 139.5,29.5 Z"/></g>
<g><path style="opacity:0.764" fill="#dc1d35" d="M 171.5,30.5 C 171.539,31.7562 171.039,32.7562 170,33.5C 167.723,32.8828 165.556,32.2161 163.5,31.5C 166.279,31.7214 168.946,31.388 171.5,30.5 Z"/></g>
<g><path style="opacity:0.497" fill="#db1e34" d="M -0.5,35.5 C -0.166667,35.5 0.166667,35.5 0.5,35.5C 0.408793,37.6977 1.07546,38.0311 2.5,36.5C 2.17876,38.0481 1.17876,38.7148 -0.5,38.5C -0.5,37.5 -0.5,36.5 -0.5,35.5 Z"/></g>
</svg>
