<?xml version="1.0" encoding="utf-8"?>
<!-- Generator: Adobe Illustrator 25.0.1, SVG Export Plug-In . SVG Version: 6.00 Build 0)  -->
<svg version="1.1" xmlns="http://www.w3.org/2000/svg" xmlns:xlink="http://www.w3.org/1999/xlink" x="0px" y="0px" width="400px"
	 height="68px" viewBox="0 0 400 68" style="enable-background:new 0 0 400 68;" xml:space="preserve">
<style type="text/css">
	.st0{fill:#1414A0;}
	.st1{fill:#E6000D;}
	.st2{display:none;}
	.st3{display:inline;}
</style>
<g id="ロゴ">
	<g>
		<g>
			<path className="st0" d="M174.26,17.15L174.26,17.15h5.28c1.21,0,2.65,1.12,3.28,1.75l9.27,10.28V17.15h3.16v16.41h-5.5
				c-0.98-0.04-1.96-0.25-3.09-1.35l-9.26-10.3v11.65h-3.14V17.15z"/>
			<path className="st0" d="M239.98,33.67L239.98,33.67c-3.79,0.53-7.59,0.58-11.43,0.25c-2.24-0.19-4.44-0.65-6.45-1.7
				c-2.53-1.31-3.33-4.27-3.31-6.95c0.04-2.47,0.77-5.11,2.98-6.55c1.46-0.95,3-1.26,4.65-1.56c4.47-0.79,8.96-0.61,13.34-0.14v2.35
				c-5.16-1-10.61-0.75-12.46,1.61c-1.16,1.49-1.31,2.94-1.31,4.19c0,2.22,0.77,5.59,5.29,6.25c2.94,0.44,5.86,0.11,8.71-0.42V33.67
				z"/>
			<path className="st0" d="M207.68,31.13L207.68,31.13c0.44,0,7.55,0.04,9.99,0v2.45c-4.91,0.18-9.64,0.26-14.6,0.05
				c-4.22-0.18-4.94-2.28-5.03-4.33V17.15h19.4v2.33h-12.55v4.19h11.43v2.28h-11.43c0,1.24,0.04,2.63,0.05,2.89
				C205.01,30.43,205.75,31.01,207.68,31.13z"/>
		</g>
		<g>
			<g>
				<polyline className="st1" points="72.97,23.66 62.23,23.66 62.23,17.42 56.68,17.42 56.68,33.76 62.23,33.76 62.23,27.19 
					72.97,27.19 72.97,33.76 78.52,33.76 78.52,17.42 72.97,17.42 72.97,23.66 				"/>
				<path className="st1" d="M89.5,17.42l-9.95,16.34h4.24l2.04-3.34H97.3l1.97,3.34h6.78L96.1,17.42H89.5z M87.79,27.19l3.86-6.34
					l3.75,6.34H87.79"/>
				<path className="st1" d="M128.07,24.5c1.32-1.73,1.14-4.27-1.39-5.72c-2.37-1.35-6.88-1.85-9.7-1.85c-4.51,0-7.42,0.3-9.89,0.72
					v16.11h5.55V20.09c2-0.39,4.03-0.4,4.79-0.37c2.2,0.1,3.44,0.44,4.43,1.15c1.02,0.73,1.3,2.34-0.03,3.46
					c-0.99,0.84-3.01,1.5-7.53,0.8l-0.63,1.05l8.53,7.58h7.55l-7.59-6.57C123.98,26.96,126.75,26.23,128.07,24.5"/>
				<path className="st1" d="M44.52,23.06c-3.2-0.62-5.93-1.01-5.93-2.05c0-1.15,2.2-1.45,5.32-1.11c2.95,0.31,5.73,1.08,8.33,2.19
					l1.97-3.23c-2.1-0.8-6.42-1.82-10.34-1.94c-4.3-0.13-11.56,0.26-11.88,4.61c-0.29,3.98,5.38,4.93,9.1,5.8
					c3.63,0.85,7.03,1.15,7.03,2.41c0,0.88-1.2,1.58-4.37,1.34c-3.81-0.29-7.06-1.33-10.3-2.94l-2.15,3.53
					c3.59,1.41,8.3,2.53,12.55,2.6c5.04,0.08,10.74-0.73,10.87-5.05C54.83,25.6,51.09,24.34,44.52,23.06"/>
				<path className="st1" d="M150.85,18.78c-2.26-1.33-6.49-1.85-9.73-1.85c-4.52,0-7.45,0.3-9.93,0.72v16.11h5.55v-5.9
					c1.71,0.29,3.87,0.46,5.72,0.44c4.54-0.04,7.92-1.1,9.46-2.77C154.1,23.14,153.37,20.27,150.85,18.78z M146,24.36
					c-0.96,0.78-2.36,1.06-4.57,1.06c-1.63-0.01-3.32-0.3-4.69-0.62v-4.71c2-0.39,4.06-0.4,4.82-0.37c2.22,0.09,3.51,0.47,4.47,1.15
					C147.02,21.57,147.35,23.25,146,24.36"/>
			</g>
		</g>
		<polygon points="167.12,16.71 158,34.23 156.7,34.23 165.82,16.71 		"/>
	</g>
</g>
<g id="日本語" className="st2">
	<g className="st3">
		<path d="M35.85,56.98l-0.68,1.03c-0.72-0.53-2.33-1.56-3.22-2.02l0.65-1C33.47,55.46,35.2,56.51,35.85,56.98z M37.56,60.49
			c2.45-1.4,4.4-3.32,5.59-5.4l0.71,1.21c-1.27,1.99-3.32,3.9-5.67,5.28c-1.49,0.86-3.53,1.55-4.9,1.83l-0.68-1.2
			C34.24,61.94,36.07,61.35,37.56,60.49z M38.03,53.75l-0.69,1c-0.71-0.53-2.3-1.59-3.17-2.1l0.66-0.99
			C35.7,52.15,37.4,53.27,38.03,53.75z"/>
		<path d="M50.5,54.91c0.09,0.32,0.27,0.96,0.49,1.74c2.08-0.4,4.59-0.89,5.09-1c0.18-0.04,0.41-0.1,0.56-0.18l0.74,0.52
			c-0.62,1.25-2.14,3.32-3.14,4.31l-1.05-0.52c0.93-0.8,2.04-2.15,2.54-3.04c-0.34,0.06-2.42,0.47-4.47,0.88
			c0.59,2.12,1.31,4.72,1.51,5.37c0.09,0.28,0.24,0.74,0.32,1l-1.25,0.33c-0.04-0.33-0.12-0.71-0.22-1.08
			c-0.19-0.66-0.9-3.28-1.48-5.39c-1.39,0.28-2.6,0.52-3,0.6l-0.29-1.12c0.41-0.03,0.78-0.09,1.22-0.16c0.21-0.03,0.9-0.16,1.8-0.32
			c-0.22-0.78-0.4-1.42-0.49-1.7c-0.1-0.37-0.22-0.66-0.35-0.88l1.27-0.31C50.34,54.22,50.41,54.54,50.5,54.91z"/>
		<path d="M62.6,56.68h8.09c0.74,0,1.27-0.04,1.59-0.07v1.45c-0.3-0.02-0.91-0.07-1.58-0.07h-8.1c-0.81,0-1.59,0.03-2.05,0.07v-1.45
			C60.99,56.64,61.77,56.68,62.6,56.68z"/>
		<path d="M84.49,50.74c0.91,0,1.67,0.75,1.67,1.67c0,0.91-0.75,1.65-1.67,1.65c-0.19,0-0.38-0.03-0.56-0.09
			c0,0.04-0.02,0.1-0.03,0.16c-0.31,1.55-1.03,3.93-2.2,5.45c-1.34,1.73-3.1,3.1-5.81,3.94l-1-1.11c2.86-0.71,4.53-1.96,5.75-3.54
			c1.05-1.34,1.74-3.39,1.93-4.81h-7.54c-0.59,0-1.09,0.03-1.48,0.04v-1.31c0.41,0.06,0.99,0.1,1.48,0.1h7.41
			c0.13,0,0.29,0,0.47-0.02c-0.04-0.15-0.07-0.31-0.07-0.47C82.83,51.49,83.57,50.74,84.49,50.74z M84.49,53.38
			c0.55,0,0.99-0.44,0.99-0.97c0-0.55-0.44-0.99-0.99-0.99c-0.53,0-0.97,0.44-0.97,0.99C83.51,52.93,83.96,53.38,84.49,53.38z"/>
		<path d="M88.54,52.17h1.42L93.89,59l1.15,2.23h0.07c-0.07-1.09-0.18-2.3-0.18-3.42v-5.64h1.3V63h-1.4l-3.94-6.83l-1.17-2.23h-0.06
			c0.06,1.09,0.16,2.24,0.16,3.38V63h-1.3V52.17z"/>
		<path d="M99.65,52.17h6.24v1.17h-4.87v3.39h4.1v1.17h-4.1v3.94h5.03V63h-6.4V52.17z"/>
		<path d="M107.92,57.6c0-3.5,2.05-5.62,4.8-5.62c1.31,0,2.35,0.65,2.97,1.34l-0.74,0.89c-0.56-0.6-1.28-1.03-2.21-1.03
			c-2.05,0-3.41,1.68-3.41,4.38c0,2.73,1.3,4.44,3.36,4.44c1.03,0,1.82-0.46,2.51-1.21l0.75,0.86c-0.86,0.99-1.92,1.55-3.32,1.55
			C109.95,63.19,107.92,61.11,107.92,57.6z"/>
		<path d="M118.61,55.99h9.67c0.31,0,0.8-0.02,1.15-0.07v1.22c-0.32-0.02-0.8-0.03-1.15-0.03h-4.01c-0.04,1.59-0.28,2.94-0.87,4.04
			c-0.53,0.97-1.65,2.04-2.91,2.69l-1.09-0.81c1.15-0.47,2.21-1.33,2.79-2.26c0.65-1.02,0.81-2.26,0.86-3.66h-4.43
			c-0.44,0-0.87,0-1.27,0.03v-1.22C117.74,55.96,118.16,55.99,118.61,55.99z M120.43,52.3h5.11c0.43,0,0.94-0.03,1.37-0.09v1.22
			c-0.43-0.03-0.94-0.04-1.37-0.04h-5.09c-0.49,0-0.97,0.01-1.36,0.04v-1.22C119.51,52.26,119.96,52.3,120.43,52.3z M128.88,53.04
			l-0.8,0.35c-0.29-0.6-0.8-1.49-1.19-2.05l0.78-0.33C128.04,51.53,128.59,52.43,128.88,53.04z M130.54,52.43l-0.8,0.35
			c-0.32-0.65-0.8-1.48-1.22-2.04l0.78-0.32C129.68,50.96,130.26,51.89,130.54,52.43z"/>
		<path d="M137.07,56.96c1.4-0.86,2.76-2.07,3.51-3.01l0.91,0.89c-0.74,0.81-1.99,1.89-3.33,2.76v5.25c0,0.46,0.01,1.06,0.07,1.3
			h-1.36c0.03-0.24,0.06-0.84,0.06-1.3v-4.52c-1.24,0.66-2.95,1.43-4.62,1.95l-0.56-1.09C133.71,58.73,135.88,57.7,137.07,56.96z"/>
		<path d="M154.32,53.78c-0.5,1.27-1.43,3-2.48,4.32c1.55,1.33,3.35,3.25,4.31,4.41l-1.03,0.89c-0.99-1.3-2.55-3.04-4.06-4.38
			c-1.58,1.7-3.57,3.32-5.76,4.31l-0.94-0.99c2.38-0.93,4.56-2.69,6.08-4.38c1-1.14,2.08-2.88,2.45-4.1h-5.76
			c-0.52,0-1.33,0.06-1.49,0.07v-1.34c0.21,0.03,1.05,0.09,1.49,0.09h5.7c0.49,0,0.87-0.04,1.11-0.12l0.75,0.58
			C154.6,53.24,154.41,53.57,154.32,53.78z"/>
		<path d="M169.65,50.74c0.91,0,1.67,0.75,1.67,1.67c0,0.91-0.75,1.65-1.67,1.65c-0.19,0-0.38-0.03-0.56-0.09
			c0,0.04-0.02,0.1-0.03,0.16c-0.31,1.55-1.03,3.93-2.2,5.45c-1.34,1.73-3.1,3.1-5.81,3.94l-1-1.11c2.86-0.71,4.53-1.96,5.75-3.54
			c1.05-1.34,1.74-3.39,1.93-4.81h-7.54c-0.59,0-1.09,0.03-1.48,0.04v-1.31c0.41,0.06,0.99,0.1,1.48,0.1h7.41
			c0.13,0,0.29,0,0.47-0.02c-0.04-0.15-0.07-0.31-0.07-0.47C168,51.49,168.73,50.74,169.65,50.74z M169.65,53.38
			c0.55,0,0.99-0.44,0.99-0.97c0-0.55-0.44-0.99-0.99-0.99c-0.53,0-0.97,0.44-0.97,0.99C168.67,52.93,169.12,53.38,169.65,53.38z"/>
		<path d="M174.72,61.8v-8.44c0-0.38-0.07-1.05-0.13-1.34h1.46c-0.06,0.37-0.1,0.91-0.1,1.34v8.37c2.82-0.71,6.24-2.66,8.07-5.03
			l0.66,1.03c-1.92,2.38-4.96,4.21-8.63,5.27c-0.16,0.04-0.38,0.12-0.62,0.27l-0.86-0.74C174.68,62.29,174.72,62.1,174.72,61.8z"/>
		<path d="M193.98,54.91c1.53-0.96,3.01-2.24,4.03-3.47l0.99,0.91c-1.12,1.17-2.48,2.29-3.98,3.29v6.23c0,0.56,0.03,1.28,0.09,1.58
			h-1.45c0.04-0.28,0.09-1.02,0.09-1.58v-5.46c-1.55,0.89-3.57,1.77-5.62,2.41l-0.59-1.15C190.09,56.98,192.34,55.94,193.98,54.91z"
			/>
		<path d="M205.92,56.58l-1.18,0.66c-0.63-1.31-1.86-3.41-2.46-4.26l1.17-0.59C204.09,53.35,205.39,55.62,205.92,56.58z
			 M209.55,58.23c1.14-1.68,1.61-3.44,1.84-4.81c0.07-0.38,0.13-0.94,0.12-1.21l1.48,0.21c-0.12,0.38-0.24,0.9-0.29,1.17
			c-0.35,1.76-0.94,3.6-2.02,5.27c-1.15,1.77-2.82,3.44-5.22,4.54l-1.11-0.93C206.79,61.46,208.46,59.87,209.55,58.23z"/>
		<path d="M218.51,52.98v4.93c0,0.37,0.03,0.86,0.06,1.12h-1.36c0.03-0.22,0.07-0.69,0.07-1.14v-4.91c0-0.27-0.03-0.78-0.06-1.06
			h1.34C218.54,52.2,218.51,52.63,218.51,52.98z M225.38,53.08v2.39c0,3.54-0.49,4.71-1.55,5.98c-0.96,1.15-2.43,1.79-3.51,2.15
			l-0.96-1.02c1.36-0.34,2.61-0.93,3.53-1.96c1.05-1.22,1.22-2.42,1.22-5.21v-2.33c0-0.5-0.03-0.91-0.07-1.28h1.39
			C225.39,52.17,225.38,52.58,225.38,53.08z"/>
		<path d="M237.54,56.43c-0.12,1-0.55,3.92-0.75,5.28h1.45c0.32,0,0.86-0.02,1.17-0.04v1.2c-0.27-0.02-0.81-0.03-1.12-0.03h-8.09
			c-0.46,0-0.8,0.01-1.22,0.04v-1.22c0.35,0.03,0.78,0.06,1.22,0.06h5.34c0.22-1.24,0.65-4.12,0.69-4.96h-4.69
			c-0.43,0-0.81,0.03-1.18,0.04v-1.24c0.35,0.04,0.8,0.09,1.17,0.09h4.49c0.24,0,0.61-0.04,0.74-0.1l0.9,0.43
			C237.6,56.12,237.56,56.31,237.54,56.43z"/>
		<path d="M243.94,56.68h8.09c0.74,0,1.27-0.04,1.59-0.07v1.45c-0.3-0.02-0.92-0.07-1.58-0.07h-8.1c-0.81,0-1.59,0.03-2.05,0.07
			v-1.45C242.33,56.64,243.12,56.68,243.94,56.68z"/>
		<path d="M260.39,56.98l-0.68,1.03c-0.72-0.53-2.33-1.56-3.22-2.02l0.65-1C258.01,55.46,259.74,56.51,260.39,56.98z M262.1,60.49
			c2.45-1.4,4.4-3.32,5.59-5.4l0.71,1.21c-1.27,1.99-3.32,3.9-5.67,5.28c-1.49,0.86-3.53,1.55-4.9,1.83l-0.68-1.2
			C258.78,61.94,260.61,61.35,262.1,60.49z M262.57,53.75l-0.69,1c-0.71-0.53-2.3-1.59-3.17-2.1l0.66-0.99
			C260.24,52.15,261.94,53.27,262.57,53.75z"/>
		<path d="M273.7,54.96h5.71c0.32,0,0.71-0.01,0.9-0.03c-0.01,0.16-0.01,0.47-0.01,0.75v7.35c0,0.24,0.01,0.59,0.03,0.8h-1.17
			c0.02-0.13,0.02-0.35,0.02-0.59h-5.93c-0.47,0-0.99,0.03-1.23,0.03v-1.18c0.24,0.03,0.71,0.06,1.21,0.06h5.95v-2.63h-5.33
			c-0.52,0-1.03,0.02-1.33,0.03v-1.14c0.28,0.02,0.81,0.04,1.31,0.04h5.34V56h-5.48c-0.38,0-1.24,0.03-1.5,0.04V54.9
			C272.47,54.93,273.32,54.96,273.7,54.96z"/>
		<path d="M290.44,59.91c2.27-1.43,4.07-3.61,4.93-5.43l0.71,1.25c-1,1.84-2.73,3.85-4.96,5.25c-1.48,0.93-3.33,1.83-5.8,2.29
			l-0.78-1.21C287.12,61.68,289.04,60.78,290.44,59.91z M289.57,55.24l-0.93,0.93c-0.74-0.77-2.58-2.35-3.67-3.08l0.84-0.9
			C286.86,52.88,288.74,54.41,289.57,55.24z"/>
		<path d="M307.65,54.03c-0.5,1.28-1.43,3.01-2.48,4.34c1.55,1.33,3.35,3.25,4.31,4.4l-1.03,0.9c-0.99-1.31-2.55-3.04-4.06-4.4
			c-1.58,1.71-3.57,3.32-5.76,4.32l-0.94-0.99c2.38-0.93,4.56-2.69,6.08-4.38c1-1.14,2.08-2.89,2.45-4.12h-5.76
			c-0.52,0-1.33,0.06-1.49,0.07v-1.33c0.21,0.03,1.05,0.09,1.49,0.09h5.7c0.49,0,0.87-0.04,1.11-0.12l0.75,0.58
			C307.93,53.51,307.74,53.83,307.65,54.03z M308.88,53.01l-0.8,0.35c-0.29-0.59-0.78-1.46-1.18-2.04l0.78-0.34
			C308.05,51.53,308.6,52.43,308.88,53.01z M310.59,52.48l-0.8,0.35c-0.32-0.63-0.81-1.48-1.21-2.02l0.77-0.34
			C309.75,51.02,310.31,51.93,310.59,52.48z"/>
		<path d="M316.83,58.59c-0.21-0.5-0.72-1.46-1.15-2.24v7.76h-1.08v-7.19c-0.5,1.65-1.17,3.23-1.85,4.21
			c-0.13-0.31-0.4-0.78-0.61-1.05c0.96-1.22,1.89-3.56,2.33-5.56h-1.99v-1.03h2.11v-2.83h1.08v2.83h1.87v1.03h-1.87V55
			c0.4,0.55,1.56,2.38,1.82,2.82L316.83,58.59z M322.86,58.01c0.74,1.74,1.98,3.5,3.17,4.43c-0.27,0.19-0.61,0.56-0.8,0.84
			c-1.11-1.02-2.24-2.79-3.01-4.59v5.43h-1.08v-5.3c-0.9,1.86-2.23,3.59-3.59,4.57c-0.18-0.27-0.5-0.65-0.75-0.84
			c1.45-0.91,2.86-2.71,3.72-4.54h-2.88v-1h3.5v-2.6h-1.83c-0.27,0.83-0.58,1.58-0.96,2.17c-0.19-0.16-0.63-0.44-0.9-0.55
			c0.78-1.15,1.25-2.91,1.51-4.69l1.02,0.18c-0.1,0.65-0.24,1.28-0.38,1.89h1.55v-2.74h1.08v2.74h2.88v1h-2.88v2.6h3.39v1H322.86z"
			/>
		<path d="M336.88,54.45c0.35,4.97,1.52,8.56,2.98,8.56c0.4,0,0.58-0.81,0.66-2.77c0.25,0.25,0.66,0.49,0.97,0.6
			c-0.19,2.55-0.6,3.31-1.73,3.31c-2.41,0-3.63-4.24-4.01-9.69h-7.61v-1.06h7.54c-0.04-0.87-0.06-1.77-0.07-2.67h1.15
			c0,0.91,0.01,1.8,0.06,2.67h4.37v1.06H336.88z M332.37,61.76c1.03-0.22,2.1-0.43,3.16-0.66l0.09,0.96
			c-2.49,0.6-5.19,1.22-7.07,1.64l-0.34-1.08c0.83-0.16,1.9-0.38,3.08-0.62v-4.28h-2.63v-1.06h6.46v1.06h-2.76V61.76z M339.82,53.21
			c-0.43-0.52-1.34-1.31-2.1-1.84l0.74-0.6c0.75,0.5,1.68,1.25,2.13,1.76L339.82,53.21z"/>
		<path d="M350.29,50.68c1.55,2.17,4.12,4.09,6.43,5.05c-0.25,0.27-0.52,0.65-0.71,0.97c-2.27-1.11-4.85-3.07-6.23-4.97
			c-1.2,1.77-3.59,3.79-6.1,5.03c-0.12-0.25-0.4-0.65-0.63-0.87c2.52-1.21,4.97-3.33,6.11-5.21H350.29z M343.83,58.01h12.13v1.02
			h-6.92c-0.52,1.09-1.15,2.36-1.74,3.39c1.83-0.06,3.91-0.13,5.98-0.22c-0.61-0.69-1.3-1.42-1.95-1.99l0.93-0.5
			c1.36,1.17,2.79,2.76,3.47,3.85l-0.99,0.6c-0.18-0.29-0.4-0.63-0.68-0.99c-3.62,0.18-7.44,0.34-9.96,0.43l-0.15-1.08
			c0.63-0.02,1.37-0.03,2.17-0.06c0.56-1.02,1.2-2.36,1.59-3.44h-3.88V58.01z M353.32,55.21v1h-6.98v-1H353.32z"/>
		<path d="M364.02,59.88c-0.38-0.43-1.2-1.25-1.86-1.87v6.11h-1.08v-5.73c-0.74,0.74-1.51,1.36-2.26,1.84
			c-0.12-0.28-0.4-0.78-0.58-0.99c1.76-1.02,3.6-2.88,4.62-4.84h-4.1v-1h2.32v-2.74h1.08v2.74h1.28l0.19-0.04l0.62,0.41
			c-0.46,1.14-1.14,2.23-1.92,3.22c0.69,0.55,1.99,1.68,2.36,2.01L364.02,59.88z M372.15,62.63v1.08h-8.27v-1.08h3.73v-6.12h-3.16
			v-1.06h3.16v-4.68h1.09v4.68h3.14v1.06h-3.14v6.12H372.15z"/>
	</g>
</g>
<g id="英語">
	<g>
		<path d="M32.53,59.14l1.39-0.13c0.07,0.59,0.22,1.08,0.46,1.46c0.24,0.38,0.61,0.69,1.12,0.92c0.5,0.24,1.07,0.35,1.7,0.35
			c0.56,0,1.06-0.09,1.48-0.27c0.43-0.18,0.75-0.42,0.96-0.73c0.21-0.31,0.31-0.65,0.31-1.01c0-0.37-0.1-0.69-0.3-0.97
			c-0.2-0.28-0.54-0.51-1-0.7c-0.3-0.12-0.96-0.32-1.98-0.58c-1.02-0.26-1.73-0.51-2.14-0.74c-0.53-0.3-0.93-0.66-1.19-1.1
			c-0.26-0.44-0.39-0.93-0.39-1.47c0-0.6,0.16-1.15,0.48-1.67c0.32-0.52,0.78-0.91,1.39-1.18s1.29-0.4,2.04-0.4
			c0.82,0,1.55,0.14,2.18,0.42c0.63,0.28,1.11,0.7,1.45,1.25c0.34,0.55,0.52,1.17,0.55,1.86l-1.41,0.11
			c-0.08-0.75-0.33-1.31-0.77-1.69c-0.44-0.38-1.08-0.57-1.94-0.57c-0.89,0-1.54,0.17-1.94,0.52c-0.41,0.35-0.61,0.76-0.61,1.25
			c0,0.43,0.14,0.77,0.43,1.05c0.28,0.27,1.02,0.56,2.22,0.84c1.19,0.29,2.01,0.54,2.46,0.75c0.65,0.32,1.12,0.72,1.43,1.21
			c0.31,0.49,0.46,1.05,0.46,1.68c0,0.63-0.17,1.22-0.51,1.78c-0.34,0.56-0.82,0.99-1.46,1.3c-0.63,0.31-1.35,0.46-2.14,0.46
			c-1,0-1.85-0.16-2.53-0.47c-0.68-0.31-1.21-0.78-1.6-1.41C32.75,60.63,32.55,59.93,32.53,59.14z"/>
		<path d="M43.25,62.93V51.11h1.36v4.24c0.64-0.78,1.44-1.18,2.41-1.18c0.6,0,1.11,0.12,1.55,0.38c0.44,0.25,0.75,0.59,0.94,1.04
			c0.19,0.44,0.28,1.08,0.28,1.92v5.43h-1.36v-5.43c0-0.73-0.15-1.25-0.44-1.58c-0.3-0.33-0.71-0.5-1.25-0.5
			c-0.4,0-0.78,0.11-1.14,0.34c-0.36,0.22-0.61,0.53-0.76,0.91s-0.23,0.91-0.23,1.58v4.69H43.25z"/>
		<path d="M57.13,61.88c-0.5,0.46-0.99,0.78-1.46,0.97c-0.47,0.19-0.97,0.28-1.5,0.28c-0.88,0-1.56-0.23-2.04-0.69
			c-0.47-0.46-0.71-1.05-0.71-1.76c0-0.42,0.09-0.8,0.27-1.15c0.18-0.35,0.41-0.62,0.7-0.83c0.29-0.21,0.62-0.37,0.98-0.48
			c0.27-0.07,0.67-0.15,1.21-0.22c1.1-0.14,1.91-0.31,2.43-0.5c0-0.2,0.01-0.32,0.01-0.38c0-0.59-0.13-1.01-0.39-1.25
			c-0.35-0.33-0.87-0.49-1.55-0.49c-0.64,0-1.11,0.12-1.42,0.36c-0.31,0.24-0.53,0.66-0.68,1.27l-1.33-0.19
			c0.12-0.61,0.32-1.1,0.6-1.47c0.28-0.37,0.68-0.66,1.2-0.86c0.53-0.2,1.13-0.3,1.83-0.3c0.69,0,1.25,0.09,1.67,0.26
			s0.75,0.39,0.95,0.65c0.2,0.26,0.34,0.59,0.42,0.99c0.05,0.25,0.07,0.69,0.07,1.34v1.94c0,1.35,0.03,2.2,0.09,2.56
			c0.06,0.36,0.17,0.7,0.34,1.03h-1.42C57.27,62.63,57.17,62.28,57.13,61.88z M57.02,58.64c-0.5,0.22-1.24,0.4-2.23,0.55
			c-0.56,0.09-0.96,0.18-1.19,0.29c-0.23,0.11-0.41,0.27-0.54,0.47c-0.13,0.21-0.19,0.44-0.19,0.69c0,0.39,0.14,0.71,0.41,0.97
			s0.68,0.39,1.21,0.39c0.53,0,0.99-0.12,1.4-0.37c0.41-0.24,0.71-0.58,0.9-1c0.15-0.33,0.22-0.81,0.22-1.45V58.64z"/>
		<path d="M60.5,62.93v-8.57h1.23v1.3c0.31-0.61,0.6-1.01,0.87-1.2c0.27-0.19,0.56-0.29,0.88-0.29c0.46,0,0.93,0.16,1.4,0.47
			l-0.47,1.35c-0.33-0.21-0.67-0.31-1-0.31c-0.3,0-0.57,0.1-0.8,0.29c-0.24,0.19-0.41,0.46-0.51,0.8c-0.15,0.52-0.23,1.08-0.23,1.69
			v4.49H60.5z"/>
		<path d="M65.93,66.22V54.37h1.24v1.11c0.29-0.44,0.62-0.76,0.99-0.98c0.37-0.22,0.82-0.33,1.34-0.33c0.69,0,1.29,0.19,1.82,0.56
			c0.53,0.38,0.92,0.91,1.19,1.59c0.27,0.69,0.4,1.44,0.4,2.26c0,0.88-0.15,1.67-0.44,2.37c-0.3,0.7-0.72,1.24-1.29,1.61
			c-0.56,0.37-1.16,0.56-1.78,0.56c-0.45,0-0.86-0.1-1.22-0.31s-0.66-0.46-0.89-0.77v4.17H65.93z M67.17,58.7
			c0,1.1,0.21,1.92,0.63,2.44c0.42,0.53,0.93,0.79,1.52,0.79c0.61,0,1.13-0.27,1.56-0.82c0.43-0.55,0.65-1.39,0.65-2.54
			c0-1.09-0.21-1.91-0.63-2.45c-0.42-0.54-0.93-0.81-1.51-0.81c-0.58,0-1.09,0.29-1.54,0.87C67.39,56.76,67.17,57.6,67.17,58.7z"/>
		<path d="M79.28,62.93V51.11h1.51l5.83,9.28v-9.28h1.41v11.83h-1.51l-5.83-9.29v9.29H79.28z"/>
		<path d="M90.69,62.93V51.11h8.03v1.4h-6.56v3.62h6.14v1.39h-6.14v4.03h6.82v1.4H90.69z"/>
		<path d="M108.63,58.79l1.47,0.4c-0.31,1.28-0.86,2.27-1.66,2.94c-0.8,0.68-1.78,1.01-2.94,1.01c-1.2,0-2.17-0.26-2.92-0.78
			c-0.75-0.52-1.32-1.27-1.71-2.26s-0.59-2.04-0.59-3.17c0-1.23,0.22-2.31,0.66-3.22c0.44-0.92,1.07-1.61,1.89-2.09
			c0.82-0.47,1.71-0.71,2.69-0.71c1.11,0,2.05,0.3,2.8,0.9c0.76,0.6,1.29,1.45,1.58,2.54l-1.45,0.36c-0.26-0.86-0.63-1.49-1.12-1.88
			c-0.49-0.39-1.11-0.59-1.85-0.59c-0.85,0-1.57,0.22-2.14,0.65c-0.57,0.44-0.98,1.02-1.21,1.75c-0.23,0.74-0.35,1.49-0.35,2.27
			c0,1.01,0.14,1.88,0.41,2.63c0.28,0.75,0.7,1.31,1.28,1.68c0.58,0.37,1.21,0.56,1.89,0.56c0.82,0,1.52-0.25,2.09-0.76
			C108.04,60.53,108.43,59.78,108.63,58.79z"/>
		<path d="M116.47,62.93V51.11h3.83c0.86,0,1.52,0.06,1.98,0.17c0.64,0.16,1.18,0.44,1.63,0.85c0.59,0.53,1.02,1.2,1.31,2.02
			c0.29,0.82,0.44,1.76,0.44,2.81c0,0.9-0.1,1.69-0.3,2.39c-0.2,0.69-0.45,1.27-0.76,1.72c-0.31,0.45-0.65,0.81-1.01,1.07
			c-0.37,0.26-0.81,0.46-1.33,0.59s-1.11,0.2-1.78,0.2H116.47z M117.94,61.54h2.37c0.73,0,1.31-0.07,1.72-0.22
			c0.42-0.15,0.75-0.35,1-0.61c0.35-0.37,0.62-0.87,0.81-1.5c0.19-0.63,0.29-1.39,0.29-2.28c0-1.24-0.19-2.19-0.57-2.85
			c-0.38-0.66-0.84-1.11-1.39-1.34c-0.39-0.16-1.03-0.24-1.9-0.24h-2.33V61.54z"/>
		<path d="M127.63,52.78v-1.67h1.36v1.67H127.63z M127.63,62.93v-8.57h1.36v8.57H127.63z"/>
		<path d="M130.56,60.38l1.35-0.23c0.08,0.58,0.29,1.02,0.63,1.32s0.83,0.46,1.45,0.46c0.63,0,1.09-0.14,1.39-0.41
			c0.3-0.27,0.45-0.59,0.45-0.96c0-0.33-0.13-0.59-0.4-0.77c-0.19-0.13-0.65-0.29-1.39-0.49c-1-0.27-1.69-0.5-2.08-0.7
			c-0.39-0.2-0.68-0.47-0.88-0.81c-0.2-0.35-0.3-0.73-0.3-1.15c0-0.38,0.08-0.74,0.25-1.06c0.16-0.33,0.39-0.6,0.67-0.81
			c0.21-0.17,0.5-0.31,0.87-0.42c0.37-0.12,0.76-0.17,1.18-0.17c0.63,0,1.19,0.1,1.66,0.29c0.48,0.19,0.83,0.46,1.06,0.79
			c0.23,0.33,0.38,0.77,0.47,1.33l-1.33,0.19c-0.06-0.44-0.24-0.78-0.53-1.03c-0.29-0.25-0.7-0.37-1.23-0.37
			c-0.63,0-1.07,0.11-1.34,0.33c-0.27,0.22-0.4,0.48-0.4,0.77c0,0.19,0.06,0.36,0.17,0.51c0.11,0.16,0.29,0.28,0.52,0.39
			c0.14,0.05,0.54,0.18,1.2,0.37c0.96,0.27,1.64,0.5,2.02,0.67c0.38,0.18,0.68,0.43,0.9,0.76s0.33,0.75,0.33,1.24
			c0,0.48-0.13,0.94-0.4,1.37c-0.27,0.43-0.65,0.76-1.15,0.99c-0.5,0.23-1.07,0.35-1.7,0.35c-1.05,0-1.84-0.23-2.39-0.69
			S130.71,61.29,130.56,60.38z"/>
		<path d="M138.87,66.22V54.37h1.24v1.11c0.29-0.44,0.62-0.76,0.99-0.98c0.37-0.22,0.82-0.33,1.34-0.33c0.69,0,1.29,0.19,1.82,0.56
			c0.53,0.38,0.92,0.91,1.19,1.59c0.27,0.69,0.4,1.44,0.4,2.26c0,0.88-0.15,1.67-0.44,2.37c-0.3,0.7-0.72,1.24-1.29,1.61
			c-0.56,0.37-1.16,0.56-1.78,0.56c-0.45,0-0.86-0.1-1.22-0.31s-0.66-0.46-0.89-0.77v4.17H138.87z M140.1,58.7
			c0,1.1,0.21,1.92,0.63,2.44s0.93,0.79,1.52,0.79c0.61,0,1.13-0.27,1.56-0.82c0.43-0.55,0.65-1.39,0.65-2.54
			c0-1.09-0.21-1.91-0.63-2.45c-0.42-0.54-0.93-0.81-1.51-0.81c-0.58,0-1.09,0.29-1.54,0.87C140.32,56.76,140.1,57.6,140.1,58.7z"/>
		<path d="M147.52,62.93V51.11h1.36v11.83H147.52z"/>
		<path d="M156.24,61.88c-0.5,0.46-0.99,0.78-1.46,0.97c-0.47,0.19-0.97,0.28-1.5,0.28c-0.88,0-1.56-0.23-2.04-0.69
			c-0.47-0.46-0.71-1.05-0.71-1.76c0-0.42,0.09-0.8,0.27-1.15c0.18-0.35,0.41-0.62,0.7-0.83c0.29-0.21,0.62-0.37,0.98-0.48
			c0.27-0.07,0.67-0.15,1.21-0.22c1.1-0.14,1.91-0.31,2.43-0.5c0-0.2,0.01-0.32,0.01-0.38c0-0.59-0.13-1.01-0.39-1.25
			c-0.35-0.33-0.87-0.49-1.55-0.49c-0.64,0-1.11,0.12-1.42,0.36c-0.31,0.24-0.53,0.66-0.68,1.27l-1.33-0.19
			c0.12-0.61,0.32-1.1,0.6-1.47c0.28-0.37,0.68-0.66,1.2-0.86c0.53-0.2,1.13-0.3,1.83-0.3c0.69,0,1.25,0.09,1.67,0.26
			c0.43,0.17,0.75,0.39,0.95,0.65c0.2,0.26,0.34,0.59,0.42,0.99c0.05,0.25,0.07,0.69,0.07,1.34v1.94c0,1.35,0.03,2.2,0.09,2.56
			c0.06,0.36,0.17,0.7,0.34,1.03h-1.42C156.37,62.63,156.28,62.28,156.24,61.88z M156.12,58.64c-0.5,0.22-1.24,0.4-2.23,0.55
			c-0.56,0.09-0.96,0.18-1.19,0.29s-0.41,0.27-0.54,0.47c-0.13,0.21-0.19,0.44-0.19,0.69c0,0.39,0.14,0.71,0.41,0.97
			s0.68,0.39,1.21,0.39c0.53,0,0.99-0.12,1.4-0.37c0.41-0.24,0.71-0.58,0.9-1c0.15-0.33,0.22-0.81,0.22-1.45V58.64z"/>
		<path d="M159.28,66.23l-0.15-1.36c0.3,0.09,0.56,0.13,0.78,0.13c0.3,0,0.55-0.05,0.73-0.16c0.18-0.11,0.33-0.26,0.45-0.45
			c0.09-0.15,0.22-0.51,0.42-1.08c0.03-0.08,0.07-0.2,0.12-0.35l-3.05-8.58h1.47l1.67,4.96c0.22,0.63,0.41,1.29,0.58,1.98
			c0.16-0.67,0.34-1.32,0.56-1.95l1.72-4.99h1.36l-3.06,8.71c-0.33,0.94-0.58,1.59-0.77,1.94c-0.24,0.48-0.52,0.83-0.83,1.05
			c-0.31,0.22-0.69,0.34-1.12,0.34C159.9,66.41,159.6,66.35,159.28,66.23z"/>
		<path d="M171.33,59.14l1.39-0.13c0.07,0.59,0.22,1.08,0.46,1.46c0.24,0.38,0.61,0.69,1.12,0.92c0.5,0.24,1.07,0.35,1.7,0.35
			c0.56,0,1.06-0.09,1.48-0.27c0.43-0.18,0.75-0.42,0.96-0.73c0.21-0.31,0.31-0.65,0.31-1.01c0-0.37-0.1-0.69-0.3-0.97
			c-0.2-0.28-0.54-0.51-1-0.7c-0.3-0.12-0.96-0.32-1.98-0.58c-1.02-0.26-1.74-0.51-2.14-0.74c-0.53-0.3-0.93-0.66-1.19-1.1
			c-0.26-0.44-0.39-0.93-0.39-1.47c0-0.6,0.16-1.15,0.48-1.67c0.32-0.52,0.78-0.91,1.39-1.18c0.61-0.27,1.29-0.4,2.04-0.4
			c0.82,0,1.55,0.14,2.18,0.42c0.63,0.28,1.11,0.7,1.45,1.25c0.34,0.55,0.52,1.17,0.55,1.86l-1.41,0.11
			c-0.08-0.75-0.33-1.31-0.77-1.69c-0.44-0.38-1.08-0.57-1.94-0.57c-0.89,0-1.54,0.17-1.94,0.52c-0.41,0.35-0.61,0.76-0.61,1.25
			c0,0.43,0.14,0.77,0.43,1.05c0.28,0.27,1.02,0.56,2.22,0.84c1.19,0.29,2.01,0.54,2.46,0.75c0.65,0.32,1.12,0.72,1.43,1.21
			c0.31,0.49,0.46,1.05,0.46,1.68c0,0.63-0.17,1.22-0.51,1.78c-0.34,0.56-0.82,0.99-1.46,1.3c-0.63,0.31-1.35,0.46-2.14,0.46
			c-1,0-1.85-0.16-2.53-0.47c-0.68-0.31-1.21-0.78-1.6-1.41C171.55,60.63,171.35,59.93,171.33,59.14z"/>
		<path d="M181.57,58.65c0-1.59,0.41-2.76,1.24-3.53c0.69-0.63,1.54-0.95,2.53-0.95c1.11,0,2.01,0.39,2.71,1.16
			c0.7,0.77,1.05,1.84,1.05,3.2c0,1.1-0.16,1.97-0.47,2.6c-0.31,0.63-0.76,1.12-1.36,1.47c-0.59,0.35-1.24,0.52-1.94,0.52
			c-1.13,0-2.04-0.38-2.73-1.15S181.57,60.1,181.57,58.65z M182.97,58.65c0,1.1,0.22,1.92,0.67,2.46c0.45,0.55,1.02,0.82,1.7,0.82
			c0.68,0,1.24-0.27,1.69-0.82c0.45-0.55,0.67-1.39,0.67-2.51c0-1.06-0.23-1.86-0.68-2.41c-0.45-0.55-1.01-0.82-1.69-0.82
			c-0.68,0-1.25,0.27-1.7,0.81C183.2,56.73,182.97,57.55,182.97,58.65z"/>
		<path d="M190.75,62.93V51.11h1.36v11.83H190.75z"/>
		<path d="M199.48,62.93v-1.26c-0.63,0.97-1.48,1.45-2.55,1.45c-0.47,0-0.92-0.1-1.33-0.29s-0.72-0.44-0.92-0.73
			c-0.2-0.29-0.34-0.65-0.42-1.08c-0.06-0.28-0.08-0.74-0.08-1.36v-5.31h1.36v4.75c0,0.76,0.03,1.27,0.08,1.53
			c0.09,0.38,0.27,0.68,0.55,0.9c0.28,0.22,0.62,0.33,1.03,0.33s0.79-0.11,1.15-0.34c0.36-0.22,0.61-0.53,0.76-0.91
			c0.15-0.38,0.22-0.94,0.22-1.67v-4.59h1.36v8.57H199.48z"/>
		<path d="M205.78,61.64l0.2,1.28c-0.38,0.09-0.73,0.13-1.03,0.13c-0.5,0-0.88-0.08-1.15-0.25s-0.46-0.39-0.58-0.66
			c-0.11-0.27-0.17-0.84-0.17-1.71V55.5h-1v-1.13h1v-2.12l1.36-0.87v2.99h1.37v1.13h-1.37v5.01c0,0.41,0.02,0.68,0.07,0.8
			c0.05,0.12,0.13,0.21,0.23,0.28c0.11,0.07,0.26,0.1,0.47,0.1C205.33,61.69,205.53,61.67,205.78,61.64z"/>
		<path d="M207.2,52.78v-1.67h1.36v1.67H207.2z M207.2,62.93v-8.57h1.36v8.57H207.2z"/>
		<path d="M210.22,58.65c0-1.59,0.41-2.76,1.24-3.53c0.69-0.63,1.54-0.95,2.53-0.95c1.11,0,2.01,0.39,2.71,1.16
			c0.7,0.77,1.05,1.84,1.05,3.2c0,1.1-0.15,1.97-0.47,2.6c-0.31,0.63-0.76,1.12-1.36,1.47c-0.59,0.35-1.24,0.52-1.94,0.52
			c-1.13,0-2.04-0.38-2.73-1.15C210.57,61.21,210.22,60.1,210.22,58.65z M211.62,58.65c0,1.1,0.23,1.92,0.67,2.46
			c0.45,0.55,1.02,0.82,1.7,0.82c0.68,0,1.24-0.27,1.69-0.82s0.67-1.39,0.67-2.51c0-1.06-0.23-1.86-0.68-2.41
			c-0.45-0.55-1.01-0.82-1.69-0.82c-0.68,0-1.25,0.27-1.7,0.81C211.85,56.73,211.62,57.55,211.62,58.65z"/>
		<path d="M219.42,62.93v-8.57h1.23v1.22c0.59-0.94,1.44-1.41,2.56-1.41c0.48,0,0.93,0.09,1.34,0.28c0.41,0.18,0.71,0.43,0.91,0.73
			c0.2,0.3,0.34,0.66,0.42,1.07c0.05,0.27,0.08,0.74,0.08,1.41v5.27h-1.36v-5.21c0-0.59-0.05-1.03-0.16-1.33
			c-0.11-0.29-0.29-0.53-0.56-0.7c-0.27-0.18-0.59-0.26-0.95-0.26c-0.58,0-1.08,0.2-1.5,0.59c-0.42,0.39-0.63,1.14-0.63,2.23v4.68
			H219.42z"/>
		<path d="M227.49,60.38l1.35-0.23c0.08,0.58,0.29,1.02,0.63,1.32c0.35,0.31,0.83,0.46,1.45,0.46c0.63,0,1.09-0.14,1.39-0.41
			c0.3-0.27,0.45-0.59,0.45-0.96c0-0.33-0.13-0.59-0.4-0.77c-0.19-0.13-0.65-0.29-1.39-0.49c-1-0.27-1.69-0.5-2.08-0.7
			c-0.39-0.2-0.68-0.47-0.88-0.81c-0.2-0.35-0.3-0.73-0.3-1.15c0-0.38,0.08-0.74,0.25-1.06c0.16-0.33,0.39-0.6,0.67-0.81
			c0.21-0.17,0.5-0.31,0.87-0.42c0.37-0.12,0.76-0.17,1.18-0.17c0.63,0,1.19,0.1,1.66,0.29c0.48,0.19,0.83,0.46,1.06,0.79
			c0.23,0.33,0.38,0.77,0.47,1.33l-1.33,0.19c-0.06-0.44-0.24-0.78-0.53-1.03c-0.29-0.25-0.7-0.37-1.23-0.37
			c-0.63,0-1.07,0.11-1.34,0.33c-0.27,0.22-0.4,0.48-0.4,0.77c0,0.19,0.06,0.36,0.17,0.51c0.11,0.16,0.29,0.28,0.52,0.39
			c0.14,0.05,0.54,0.18,1.2,0.37c0.96,0.27,1.64,0.5,2.02,0.67c0.38,0.18,0.68,0.43,0.9,0.76c0.22,0.33,0.33,0.75,0.33,1.24
			c0,0.48-0.13,0.94-0.4,1.37c-0.27,0.43-0.65,0.76-1.15,0.99c-0.5,0.23-1.07,0.35-1.7,0.35c-1.05,0-1.84-0.23-2.39-0.69
			C227.99,61.97,227.64,61.29,227.49,60.38z"/>
		<path d="M236.1,62.93v-1.65h1.55v1.65c0,0.61-0.1,1.1-0.3,1.47c-0.2,0.37-0.52,0.66-0.96,0.87l-0.38-0.62
			c0.29-0.13,0.5-0.33,0.64-0.59c0.14-0.26,0.21-0.63,0.23-1.12H236.1z"/>
		<path d="M244.73,62.93V51.11h1.47v10.43h5.47v1.4H244.73z"/>
		<path d="M256.05,61.64l0.2,1.28c-0.38,0.09-0.73,0.13-1.03,0.13c-0.49,0-0.88-0.08-1.15-0.25c-0.27-0.17-0.46-0.39-0.58-0.66
			c-0.11-0.27-0.17-0.84-0.17-1.71V55.5h-1v-1.13h1v-2.12l1.36-0.87v2.99h1.37v1.13h-1.37v5.01c0,0.41,0.02,0.68,0.07,0.8
			c0.05,0.12,0.13,0.21,0.23,0.28c0.11,0.07,0.26,0.1,0.47,0.1C255.6,61.69,255.8,61.67,256.05,61.64z"/>
		<path d="M262.51,62.93v-1.08c-0.51,0.85-1.26,1.27-2.25,1.27c-0.64,0-1.23-0.19-1.77-0.56c-0.54-0.38-0.95-0.9-1.25-1.58
			c-0.3-0.68-0.44-1.45-0.44-2.33c0-0.86,0.13-1.63,0.4-2.33c0.27-0.7,0.67-1.23,1.2-1.6c0.54-0.37,1.13-0.56,1.8-0.56
			c0.48,0,0.92,0.11,1.3,0.33c0.38,0.22,0.69,0.5,0.92,0.85v-4.24h1.36v11.83H262.51z M258.2,58.66c0,1.1,0.22,1.92,0.65,2.46
			c0.43,0.54,0.95,0.81,1.54,0.81c0.6,0,1.1-0.26,1.52-0.78c0.42-0.52,0.62-1.31,0.62-2.38c0-1.17-0.21-2.03-0.64-2.58
			s-0.95-0.82-1.57-0.82c-0.61,0-1.11,0.26-1.52,0.79C258.4,56.69,258.2,57.52,258.2,58.66z"/>
		<path d="M266.15,62.93v-1.65h1.55v1.65H266.15z"/>
	</g>
</g>
</svg>
